<svg xmlns="http://www.w3.org/2000/svg" viewBox="0 0 64 64" role="img" aria-label="Tooth icon">
  <defs>
    <linearGradient id="g" x1="0%" y1="0%" x2="100%" y2="100%">
      <stop offset="0%" stop-color="#62d5ff" />
      <stop offset="100%" stop-color="#1e90ff" />
    </linearGradient>
  </defs>
  <rect width="64" height="64" rx="12" fill="#f4fbff" />
  <path
    d="M20 12c4-3 8-4 12-4s8 1 12 4c7 5 8 18-1 28-3 3-4 8-4 12 0 4-2 6-4 6s-4-2-4-6c0-4-1-9-4-12-9-10-8-23-1-28z"
    fill="url(#g)"
  />
  <path d="M28 18c2-1 4-1 6 0" stroke="#ffffff" stroke-width="3" stroke-linecap="round" />
</svg>
